<?xml version="1.0" encoding="UTF-8" standalone="no"?>
<!-- Created with Inkscape (http://www.inkscape.org/) -->

<svg
   xmlns:dc="http://purl.org/dc/elements/1.1/"
   xmlns:cc="http://creativecommons.org/ns#"
   xmlns:rdf="http://www.w3.org/1999/02/22-rdf-syntax-ns#"
   xmlns:svg="http://www.w3.org/2000/svg"
   xmlns="http://www.w3.org/2000/svg"
   xmlns:sodipodi="http://sodipodi.sourceforge.net/DTD/sodipodi-0.dtd"
   xmlns:inkscape="http://www.inkscape.org/namespaces/inkscape"
   width="45.37075mm"
   height="7.8796444mm"
   viewBox="0 0 160.7625 27.92"
   id="svg4275"
   version="1.1"
   inkscape:version="0.91 r13725"
   sodipodi:docname="konkreta.svg">
  <title
     id="title4831">Konkreta: o jeito inteligente de pedir concreto</title>
  <defs
     id="defs4277" />
  <sodipodi:namedview
     id="base"
     pagecolor="#ffffff"
     bordercolor="#666666"
     borderopacity="1.0"
     inkscape:pageopacity="0.0"
     inkscape:pageshadow="2"
     inkscape:zoom="2.8"
     inkscape:cx="36.997718"
     inkscape:cy="-28.994604"
     inkscape:document-units="px"
     inkscape:current-layer="layer1"
     showgrid="false"
     inkscape:window-width="1920"
     inkscape:window-height="1017"
     inkscape:window-x="-8"
     inkscape:window-y="-8"
     inkscape:window-maximized="1"
     fit-margin-top="0"
     fit-margin-left="0"
     fit-margin-right="0"
     fit-margin-bottom="0" />
  <metadata
     id="metadata4280">
    <rdf:RDF>
      <cc:Work
         rdf:about="">
        <dc:format>image/svg+xml</dc:format>
        <dc:type
           rdf:resource="http://purl.org/dc/dcmitype/StillImage" />
        <dc:title>Konkreta: o jeito inteligente de pedir concreto</dc:title>
        <dc:date>23/10/2018</dc:date>
        <dc:creator>
          <cc:Agent>
            <dc:title>Douglas Araujo de Moura</dc:title>
          </cc:Agent>
        </dc:creator>
        <dc:rights>
          <cc:Agent>
            <dc:title>Moura &amp; Barbosa Serviços de Engenharia e Tecnologia Ltda.</dc:title>
          </cc:Agent>
        </dc:rights>
      </cc:Work>
    </rdf:RDF>
  </metadata>
  <g
     inkscape:label="Camada 1"
     inkscape:groupmode="layer"
     id="layer1"
     transform="translate(-140.44,-235.60435)">
    <g
       style="font-style:normal;font-weight:normal;font-size:40px;line-height:125%;font-family:sans-serif;letter-spacing:0px;word-spacing:0px;fill:#363636;fill-opacity:1;stroke:none;stroke-width:1px;stroke-linecap:butt;stroke-linejoin:miter;stroke-opacity:1"
       id="flowRoot4823">
      <path
         d="m 161.56,263.12435 -9.24,0 0,-3.88 1.68,0 -3.12,-3.56 -2.68,0 0,3.56 1.64,0 0,3.88 -9.2,0 0,-3.88 2.4,0 0,-19.72 -2.6,0 0,-3.92 7.76,0 0,16.44 3,0 2.64,-3.04 -2.16,0 0,-3.92 9.04,0 0,3.92 -1.96,0 -3.88,4.4 5.12,5.84 1.56,0 0,3.88 z"
         style="font-style:normal;font-variant:normal;font-weight:bold;font-stretch:normal;font-family:'Zilla Slab';-inkscape-font-specification:'Zilla Slab Bold';fill:#363636;fill-opacity:1"
         id="path4834" />
      <path
         d="m 181.995,254.12435 q 0,4.28 -2.8,6.84 -2.8,2.56 -7.12,2.56 -4.16,0 -6.8,-2.4 -2.6,-2.44 -2.6,-6.8 0,-3.96 2.4,-6.8 2.4,-2.84 7.28,-2.84 4.88,0 7.24,2.84 2.4,2.8 2.4,6.6 z m -5.32,-0.16 q 0,-2.76 -1.28,-4.04 -1.28,-1.28 -3.12,-1.28 -2,0 -3.16,1.44 -1.12,1.4 -1.12,3.96 0,2.32 1.04,3.92 1.08,1.6 3.2,1.6 2,0 3.2,-1.48 1.24,-1.52 1.24,-4.12 z"
         style="font-style:normal;font-variant:normal;font-weight:bold;font-stretch:normal;font-family:'Zilla Slab';-inkscape-font-specification:'Zilla Slab Bold';fill:#363636;fill-opacity:1"
         id="path4836" />
      <path
         d="m 206.0525,263.12435 -9.96,0 0,-3.88 2.4,0 0,-6.28 q 0,-2.32 -0.8,-3.32 -0.76,-1 -2.28,-1 -1.84,0 -2.84,1.16 -1,1.12 -1.04,2.96 l 0,6.48 2.4,0 0,3.88 -9.96,0 0,-3.88 2.4,0 0,-10.24 -2.6,0 0,-3.92 7.76,0 0,2.76 q 1.8,-3.12 5.8,-3.12 2.56,0 4.44,1.52 1.88,1.52 1.88,4.72 l 0,8.28 2.4,0 0,3.88 z"
         style="font-style:normal;font-variant:normal;font-weight:bold;font-stretch:normal;font-family:'Zilla Slab';-inkscape-font-specification:'Zilla Slab Bold';fill:#363636;fill-opacity:1"
         id="path4838" />
      <path
         d="m 228.1225,263.12435 -9.24,0 0,-3.88 1.68,0 -3.12,-3.56 -2.68,0 0,3.56 1.64,0 0,3.88 -9.2,0 0,-3.88 2.4,0 0,-19.72 -2.6,0 0,-3.92 7.76,0 0,16.44 3,0 2.64,-3.04 -2.16,0 0,-3.92 9.04,0 0,3.92 -1.96,0 -3.88,4.4 5.12,5.84 1.56,0 0,3.88 z"
         style="font-style:normal;font-variant:normal;font-weight:bold;font-stretch:normal;font-family:'Zilla Slab';-inkscape-font-specification:'Zilla Slab Bold';fill:#363636;fill-opacity:1"
         id="path4840" />
      <path
         d="m 241.23187,244.84435 q 0.76,0 1.68,0.24 0.96,0.2 1.88,0.76 l 0.8,6.32 -3.92,0.44 -0.68,-3.08 q -0.8,-0.48 -1.39999,-0.48 -0.88001,0 -1.56,0.68 -0.64001,0.68 -0.64001,2 l 0,7.52 3.2,0 0,3.88 -10.76,0 0,-3.88 2.4,0 0,-10.24 -2.6,0 0,-3.92 7.36,0 0,3.44 q 0.44,-1.56 1.4,-2.6 1,-1.08 2.84,-1.08 z"
         style="font-style:normal;font-variant:normal;font-weight:bold;font-stretch:normal;font-family:'Zilla Slab';-inkscape-font-specification:'Zilla Slab Bold';fill:#363636;fill-opacity:1"
         id="path4842" />
      <path
         d="m 264.84812,257.44435 q -0.2,2.4 -2.35999,4.24 -2.16001,1.84 -6.04001,1.84 -4.04,0 -6.68,-2.28 -2.6,-2.28 -2.6,-6.8 0,-4.16 2.36,-6.92 2.4,-2.8 6.68,-2.8 3.76,0 6.08,2.16 2.36,2.16 2.40001,5.68 0,1.32 -0.28001,2.6 l -11.84,0 q 0.44,4.28 4.24001,4.28 2.07999,0 2.79999,-1 0.76001,-1 0.92,-1.8 l 4.32,0.8 z m -5.47999,-5.28 q 0.15999,-1.36 -0.60001,-2.56 -0.71999,-1.2 -2.56,-1.2 -1.6,0 -2.48,1.04 -0.88,1.04 -1.12,2.72 l 6.76001,0 z"
         style="font-style:normal;font-variant:normal;font-weight:bold;font-stretch:normal;font-family:'Zilla Slab';-inkscape-font-specification:'Zilla Slab Bold';fill:#363636;fill-opacity:1"
         id="path4844" />
      <path
         d="m 281.865,257.52435 q -0.4,3.12 -2.16,4.56 -1.76,1.44 -4.56,1.44 -3,0 -4.88,-1.48 -1.84,-1.52 -1.84,-4.32 l 0,-8.96 -2.56,0 0,-3.68 2.56,0 0,-5.48 5.16,0 0,5.48 6.48,0 0,3.68 -6.48,0 0,8.08 q 0,2.36 2.16,2.36 0.48,0 1.28,-0.4 0.84,-0.44 1.08,-2.44 l 3.76,1.16 z"
         style="font-style:normal;font-variant:normal;font-weight:bold;font-stretch:normal;font-family:'Zilla Slab';-inkscape-font-specification:'Zilla Slab Bold';fill:#363636;fill-opacity:1"
         id="path4846" />
      <path
         d="m 284.2825,246.36435 q 2.36,-0.96 3.92,-1.28 1.6,-0.36 3.8,-0.36 2.92,0 5.04,1.52 2.12,1.52 2.12,4.6 l 0,7.84 q 0,1.4 1.24,1.4 0.36,0 0.76,-0.12 l 0.04,2.72 q -1.56,0.84 -3.24,0.84 -3.56,0 -3.96,-3.56 l 0,-0.04 q -0.76,1.36 -2.2,2.48 -1.4,1.12 -3.6,1.12 -1.96,0 -3.76,-1.16 -1.8,-1.16 -1.8,-4 0,-3.32 2.64,-4.4 2.68,-1.08 5.76,-1.08 1.72,0 2.96,0.16 l 0,-0.6 q 0,-1.4 -0.4,-2.72 -0.36,-1.32 -2.56,-1.32 -0.8,0 -1.48,0.12 -0.64,0.08 -1.28,0.4 l -0.68,2.56 -4.12,-0.44 0.8,-4.68 z m 9.72,9.4 0,-0.24 q -0.64,-0.08 -1.32,-0.16 -0.64,-0.08 -1.28,-0.08 -1.36,0 -2.4,0.52 -1.04,0.48 -1.04,1.96 0,0.88 0.48,1.48 0.48,0.6 1.64,0.6 1.36,0 2.52,-0.96 1.2,-1 1.4,-3.12 z"
         style="font-style:normal;font-variant:normal;font-weight:bold;font-stretch:normal;font-family:'Zilla Slab';-inkscape-font-specification:'Zilla Slab Bold';fill:#363636;fill-opacity:1"
         id="path4848" />
    </g>
  </g>
</svg>
